<?xml version="1.0" standalone="no"?><!DOCTYPE svg PUBLIC "-//W3C//DTD SVG 1.1//EN" "http://www.w3.org/Graphics/SVG/1.1/DTD/svg11.dtd"><svg t="1716346333672" class="icon" viewBox="0 0 1024 1024" version="1.1" xmlns="http://www.w3.org/2000/svg" p-id="1476" xmlns:xlink="http://www.w3.org/1999/xlink" width="200" height="200"><path d="M517.52 912S163 695.34 163 448.5C163 261 321.49 109 517 109s354 152 354 339.5C871 714.66 517.52 912 517.52 912z m203.79-570.39l-89.4-139.7c-3.84-6.01-13.03-7.71-20.53-3.8L229.29 397.14c-7.49 3.9-10.46 11.94-6.61 17.94l143.36 111.46c3.84 6 13.04 7.7 20.53 3.8l328.12-170.78c7.5-3.91 10.46-11.94 6.62-17.95z m-76.12 224.1s-39.55-70.55-36.4-72.19C680.64 456.31 723 433.34 723 433.34l-21.96-45.27S469.54 512.8 375.98 561.31c-6.01 3.12-52.71-41.42-52.71-41.42s25.42 71.18 37.02 80.97c11.56 9.75 32.63 3.76 32.63 3.76s100.79-52.34 168.18-87.24c4.29-2.23 68.4 95.4 68.4 95.4l55.85-0.62 0.63 50.84 36.39-0.63 0.63-146.25h-37.65v48.96z" fill="#49D2FE" p-id="1477"></path></svg>